<?xml version="1.0" encoding="UTF-8"?>
<svg width="153px" height="36px" viewBox="0 0 153 36" version="1.1" xmlns="http://www.w3.org/2000/svg" xmlns:xlink="http://www.w3.org/1999/xlink">
    <!-- Generator: Sketch 61.1 (89650) - https://sketch.com -->
    <title>WarrenYen 2</title>
    <desc>Created with Sketch.</desc>
    <g id="Page-1" stroke="none" stroke-width="1" fill="none" fill-rule="evenodd">
        <g id="Mobile" transform="translate(-438.000000, -146.000000)" fill="#222222" fill-rule="nonzero">
            <g id="WarrenYen-2" transform="translate(438.040000, 146.824000)">
                <path d="M14.624,23.2 C16.096,23.2 18.112,22.2666667 20.672,20.4 C23.232,18.5333333 25.6533333,16.4053333 27.936,14.016 C30.2186667,11.6266667 32.2133333,9.312 33.92,7.072 C35.6266667,4.832 36.48,3.33866667 36.48,2.592 C36.48,2.12266667 36.3573333,1.57333333 36.112,0.944 C35.8666667,0.314666667 35.632,2.84217094e-14 35.408,2.84217094e-14 C35.184,2.84217094e-14 35.0186667,0.133333333 34.912,0.4 C34.8053333,0.666666667 34.656,1.00266667 34.464,1.408 C33.0346667,3.84 31.1946667,6.34133333 28.944,8.912 C26.6933333,11.4826667 24.56,13.6533333 22.544,15.424 C20.528,17.1946667 18.7306667,18.656 17.152,19.808 C15.5733333,20.96 14.5706667,21.536 14.144,21.536 C13.952,21.536 13.856,21.44 13.856,21.248 C13.856,19.6053333 14.9546667,17.2693333 17.152,14.24 C19.3493333,11.2106667 21.504,8.69333333 23.616,6.688 C23.744,6.58133333 23.808,6.448 23.808,6.288 C23.808,6.128 23.6266667,5.88266667 23.264,5.552 C22.9013333,5.22133333 22.6986667,5.024 22.656,4.96 C22.6133333,4.896 22.5386667,4.864 22.432,4.864 C22.3253333,4.864 22.24,4.90666667 22.176,4.992 C19.5306667,7.27466667 14.3146667,11.1573333 6.528,16.64 C6.50666667,16.6613333 6.47466667,16.6826667 6.432,16.704 L6.432,16.704 L5.92,16.96 L5.92,16.928 C5.92,16.8213333 5.984,16.672 6.112,16.48 L6.112,16.48 L8.416,13.472 C9.504,12.064 11.0666667,10.304 13.104,8.192 C15.1413333,6.08 16.9813333,4.27733333 18.624,2.784 C18.7306667,2.656 18.784,2.464 18.784,2.208 C18.784,1.952 18.5653333,1.66933333 18.128,1.36 C17.6906667,1.05066667 17.3386667,0.848 17.072,0.752 C16.8053333,0.656 16.5866667,0.576 16.416,0.512 C14.7306667,0.512 13.0293333,0.794666667 11.312,1.36 C9.59466667,1.92533333 8.08533333,2.63466667 6.784,3.488 C5.48266667,4.34133333 4.304,5.24266667 3.248,6.192 C2.192,7.14133333 1.38666667,8.02666667 0.832,8.848 C0.277333333,9.66933333 2.84217094e-14,10.24 2.84217094e-14,10.56 C2.84217094e-14,10.88 0.064,11.04 0.192,11.04 C0.32,11.04 0.416,10.944 0.48,10.752 C1.312,9.408 3.58933333,7.66933333 7.312,5.536 C11.0346667,3.40266667 13.696,2.336 15.296,2.336 C15.3813333,2.336 15.424,2.37866667 15.424,2.464 C15.424,2.54933333 15.2213333,2.752 14.816,3.072 C12.6186667,4.71466667 10.6346667,6.42133333 8.864,8.192 C7.09333333,9.96266667 5.74933333,11.4613333 4.832,12.688 C3.91466667,13.9146667 3.12533333,15.1306667 2.464,16.336 C1.80266667,17.5413333 1.40266667,18.3306667 1.264,18.704 C1.12533333,19.0773333 0.981333333,19.4666667 0.832,19.872 C0.682666667,20.2773333 0.608,20.5866667 0.608,20.8 C0.608,21.0133333 0.618666667,21.1733333 0.64,21.28 C0.661333333,21.3013333 0.693333333,21.3386667 0.736,21.392 L0.736,21.392 L0.864,21.552 C0.906666667,21.6053333 0.976,21.6906667 1.072,21.808 C1.168,21.9253333 1.25866667,22.0373333 1.344,22.144 C1.536,22.4426667 1.78133333,22.592 2.08,22.592 C2.37866667,22.592 3.37066667,21.904 5.056,20.528 C6.74133333,19.152 9.96266667,16.3733333 14.72,12.192 C14.848,12.064 14.944,12 15.008,12 C15.0293333,12 15.04,12.0213333 15.04,12.064 L15.04,12.064 L15.04,12.096 L14.912,12.352 L14.176,13.216 C13.664,13.728 13.2266667,14.304 12.864,14.944 C11.9466667,16.5653333 11.488,18.144 11.488,19.68 C11.488,20.9173333 11.8346667,21.8133333 12.528,22.368 C13.2213333,22.9226667 13.92,23.2 14.624,23.2 Z M27.168,22.784 C27.808,22.784 28.6453333,22.416 29.68,21.68 C30.7146667,20.944 31.4453333,20.3573333 31.872,19.92 C32.2986667,19.4826667 32.6506667,19.1146667 32.928,18.816 C33.0133333,18.7306667 33.072,18.688 33.104,18.688 C33.136,18.688 33.152,18.72 33.152,18.784 L33.152,18.784 L32.896,20.832 C32.896,21.4933333 32.9813333,21.952 33.152,22.208 C33.3226667,22.464 33.6106667,22.592 34.016,22.592 C34.4213333,22.592 35.4453333,22.0053333 37.088,20.832 C37.7706667,20.3413333 38.544,19.7493333 39.408,19.056 C40.272,18.3626667 41.04,17.7333333 41.712,17.168 C42.384,16.6026667 43.0826667,16.0106667 43.808,15.392 C44.5333333,14.7733333 45.0186667,14.3573333 45.264,14.144 C45.5093333,13.9306667 45.7173333,13.7493333 45.888,13.6 C46.0586667,13.4506667 46.144,13.2693333 46.144,13.056 C46.144,12.8426667 46.048,12.6613333 45.856,12.512 C41.184,15.968 37.76,18.2186667 35.584,19.264 C35.6266667,18.8586667 35.8826667,18.3253333 36.352,17.664 C36.6293333,17.28 36.896,16.9333333 37.152,16.624 C37.408,16.3146667 37.8346667,15.808 38.432,15.104 C39.0293333,14.4 39.552,13.7706667 40,13.216 C40.2986667,12.96 40.448,12.7253333 40.448,12.512 C40.448,12.2986667 40.384,12.1333333 40.256,12.016 C40.128,11.8986667 40,11.8293333 39.872,11.808 C39.6373333,11.552 39.4346667,11.424 39.264,11.424 C39.0933333,11.424 38.9013333,11.5306667 38.688,11.744 C38.4533333,11.1893333 38.1333333,10.9013333 37.728,10.88 C36.6613333,10.88 35.408,11.2853333 33.968,12.096 C32.528,12.9066667 31.2213333,13.8613333 30.048,14.96 C28.8746667,16.0586667 27.8666667,17.1786667 27.024,18.32 C26.1813333,19.4613333 25.76,20.3093333 25.76,20.864 C25.76,21.4186667 25.888,21.8453333 26.144,22.144 C26.4,22.4426667 26.608,22.6186667 26.768,22.672 C26.928,22.7253333 27.0613333,22.7626667 27.168,22.784 Z M29.632,19.488 C29.5893333,19.488 29.568,19.4666667 29.568,19.424 C29.568,19.0613333 30.0426667,18.3626667 30.992,17.328 C31.9413333,16.2933333 33.0666667,15.312 34.368,14.384 C35.6693333,13.456 36.7253333,12.992 37.536,12.992 C37.6,12.992 37.632,13.008 37.632,13.04 C37.632,13.072 37.5893333,13.1306667 37.504,13.216 L37.504,13.216 L35.712,14.784 C34.5386667,15.8293333 33.296,16.8746667 31.984,17.92 C30.672,18.9653333 29.888,19.488 29.632,19.488 Z M45.888,22.848 C46.848,22.848 48.3893333,22.096 50.512,20.592 C52.6346667,19.088 54.5386667,17.552 56.224,15.984 C57.9093333,14.416 58.752,13.4986667 58.752,13.232 C58.752,12.9653333 58.6773333,12.832 58.528,12.832 C51.9146667,17.504 48.032,19.84 46.88,19.84 C46.7733333,19.84 46.72,19.808 46.72,19.744 C46.72,19.3386667 47.0293333,18.8053333 47.648,18.144 C48.2666667,17.4826667 48.928,16.8853333 49.632,16.352 C50.336,15.8186667 51.056,15.296 51.792,14.784 C52.528,14.272 52.9653333,13.968 53.104,13.872 C53.2426667,13.776 53.312,13.6533333 53.312,13.504 C53.312,13.3546667 53.0453333,12.928 52.512,12.224 C52.3626667,12.0746667 52.1226667,12 51.792,12 C51.4613333,12 51.0186667,12.0906667 50.464,12.272 C49.9093333,12.4533333 49.4773333,12.544 49.168,12.544 C48.8586667,12.544 48.128,12.256 46.976,11.68 C45.824,11.104 45.1306667,10.816 44.896,10.816 C44.2773333,10.816 43.8293333,10.8853333 43.552,11.024 C43.2746667,11.1626667 43.136,11.4453333 43.136,11.872 C43.136,11.936 43.168,12.0426667 43.232,12.192 C43.424,12.64 43.8613333,13.0986667 44.544,13.568 C43.264,14.5066667 42.0373333,15.3813333 40.864,16.192 C40.5226667,16.4693333 40.352,16.688 40.352,16.848 C40.352,17.008 40.608,17.088 41.12,17.088 C41.632,17.088 42.048,16.9706667 42.368,16.736 C43.7333333,15.584 44.6933333,14.7626667 45.248,14.272 C45.4186667,14.528 45.8133333,14.7466667 46.432,14.928 C47.0506667,15.1093333 47.5413333,15.2 47.904,15.2 C46.1546667,16.48 45.008,17.4986667 44.464,18.256 C43.92,19.0133333 43.648,19.7973333 43.648,20.608 C43.648,22.1013333 44.3946667,22.848 45.888,22.848 Z M59.168,22.848 C60.128,22.848 61.6693333,22.096 63.792,20.592 C65.9146667,19.088 67.8186667,17.552 69.504,15.984 C71.1893333,14.416 72.032,13.4986667 72.032,13.232 C72.032,12.9653333 71.9573333,12.832 71.808,12.832 C65.1946667,17.504 61.312,19.84 60.16,19.84 C60.0533333,19.84 60,19.808 60,19.744 C60,19.3386667 60.3093333,18.8053333 60.928,18.144 C61.5466667,17.4826667 62.208,16.8853333 62.912,16.352 C63.616,15.8186667 64.336,15.296 65.072,14.784 C65.808,14.272 66.2453333,13.968 66.384,13.872 C66.5226667,13.776 66.592,13.6533333 66.592,13.504 C66.592,13.3546667 66.3253333,12.928 65.792,12.224 C65.6426667,12.0746667 65.4026667,12 65.072,12 C64.7413333,12 64.2986667,12.0906667 63.744,12.272 C63.1893333,12.4533333 62.7573333,12.544 62.448,12.544 C62.1386667,12.544 61.408,12.256 60.256,11.68 C59.104,11.104 58.4106667,10.816 58.176,10.816 C57.5573333,10.816 57.1093333,10.8853333 56.832,11.024 C56.5546667,11.1626667 56.416,11.4453333 56.416,11.872 C56.416,11.936 56.448,12.0426667 56.512,12.192 C56.704,12.64 57.1413333,13.0986667 57.824,13.568 C56.544,14.5066667 55.3173333,15.3813333 54.144,16.192 C53.8026667,16.4693333 53.632,16.688 53.632,16.848 C53.632,17.008 53.888,17.088 54.4,17.088 C54.912,17.088 55.328,16.9706667 55.648,16.736 C57.0133333,15.584 57.9733333,14.7626667 58.528,14.272 C58.6986667,14.528 59.0933333,14.7466667 59.712,14.928 C60.3306667,15.1093333 60.8213333,15.2 61.184,15.2 C59.4346667,16.48 58.288,17.4986667 57.744,18.256 C57.2,19.0133333 56.928,19.7973333 56.928,20.608 C56.928,22.1013333 57.6746667,22.848 59.168,22.848 Z M69.344,22.752 C70.7306667,22.752 72.5226667,22.16 74.72,20.976 C76.9173333,19.792 78.864,18.5386667 80.56,17.216 C82.256,15.8933333 83.6373333,14.6986667 84.704,13.632 C84.896,13.4613333 84.992,13.2693333 84.992,13.056 C84.992,12.8426667 84.896,12.6613333 84.704,12.512 C84.6186667,12.576 84.336,12.7786667 83.856,13.12 C83.376,13.4613333 83.0186667,13.7173333 82.784,13.888 C79.4346667,16.2773333 76.8106667,17.9466667 74.912,18.896 C73.0133333,19.8453333 71.2533333,20.32 69.632,20.32 C69.376,20.2346667 69.248,20.016 69.248,19.664 C69.248,19.312 69.4186667,18.8533333 69.76,18.288 C70.1013333,17.7226667 70.3466667,17.44 70.496,17.44 C70.6453333,17.44 70.7626667,17.472 70.848,17.536 C71.0186667,17.856 71.28,18.016 71.632,18.016 C71.984,18.016 72.7093333,17.744 73.808,17.2 C74.9066667,16.656 75.9573333,15.9413333 76.96,15.056 C77.9626667,14.1706667 78.464,13.376 78.464,12.672 C78.464,12.288 78.2453333,11.8933333 77.808,11.488 C77.3706667,11.0826667 76.896,10.88 76.384,10.88 C75.232,10.88 73.9093333,11.3333333 72.416,12.24 C70.9226667,13.1466667 69.6266667,14.3093333 68.528,15.728 C67.4293333,17.1466667 66.88,18.4853333 66.88,19.744 C66.88,21.7493333 67.7013333,22.752 69.344,22.752 Z M71.456,16.384 C71.392,16.384 71.36,16.3626667 71.36,16.32 C71.36,16.064 72.0213333,15.3653333 73.344,14.224 C74.6666667,13.0826667 75.6053333,12.512 76.16,12.512 C76.288,12.512 76.352,12.5653333 76.352,12.672 C76.352,13.056 75.6533333,13.7706667 74.256,14.816 C72.8586667,15.8613333 71.9253333,16.384 71.456,16.384 Z M86.528,23.2 C87.3813333,23.2 88.88,22.368 91.024,20.704 C93.168,19.04 94.7626667,17.712 95.808,16.72 C96.8533333,15.728 97.7173333,14.9013333 98.4,14.24 C98.592,14.0693333 98.688,13.8773333 98.688,13.664 C98.688,13.4506667 98.592,13.2693333 98.4,13.12 C97.2693333,13.9093333 95.952,14.8746667 94.448,16.016 C92.944,17.1573333 91.7386667,18.0373333 90.832,18.656 C89.9253333,19.2746667 89.1466667,19.7333333 88.496,20.032 C87.8453333,20.3306667 87.3973333,20.48 87.152,20.48 C86.9066667,20.48 86.784,20.384 86.784,20.192 C86.784,19.8293333 86.848,19.4026667 86.976,18.912 C87.04,18.7413333 87.1573333,18.5333333 87.328,18.288 C87.4986667,18.0426667 87.6533333,17.824 87.792,17.632 C87.9306667,17.44 88.16,17.1626667 88.48,16.8 C88.8,16.4373333 89.088,16.112 89.344,15.824 C89.6,15.536 89.9893333,15.1093333 90.512,14.544 C91.0346667,13.9786667 91.4986667,13.472 91.904,13.024 C91.9893333,12.9173333 92.032,12.7786667 92.032,12.608 C92.032,12.4373333 91.9253333,12.2986667 91.712,12.192 L91.712,12.192 L90.816,11.936 C90.752,11.8933333 90.6186667,11.872 90.416,11.872 C90.2133333,11.872 89.9626667,11.9786667 89.664,12.192 C88.064,13.4933333 86.0266667,15.008 83.552,16.736 L83.552,16.736 L83.392,16.832 C83.3706667,16.832 83.36,16.8106667 83.36,16.768 C83.36,16.7253333 83.4986667,16.5333333 83.776,16.192 L83.776,16.192 L86.176,12.864 C86.2826667,12.7146667 86.336,12.5653333 86.336,12.416 C86.336,12.2026667 86.1386667,12.0106667 85.744,11.84 C85.3493333,11.6693333 85.0666667,11.584 84.896,11.584 C84.6613333,11.584 84.3466667,11.8826667 83.952,12.48 C83.5573333,13.0773333 83.0773333,13.8346667 82.512,14.752 C81.9466667,15.6693333 81.408,16.384 80.896,16.896 C80.256,17.8133333 79.1466667,18.9973333 77.568,20.448 C77.4613333,20.6186667 77.408,20.8106667 77.408,21.024 C77.408,21.664 77.76,21.984 78.464,21.984 C78.72,21.984 78.9333333,21.9306667 79.104,21.824 C80.128,21.2906667 82.496,19.4773333 86.208,16.384 C86.336,16.2773333 86.4,16.24 86.4,16.272 C86.4,16.304 86.336,16.416 86.208,16.608 L86.208,16.608 L84.832,18.496 C84.32,19.2213333 84.064,19.9146667 84.064,20.576 C84.064,22.3253333 84.8853333,23.2 86.528,23.2 Z M98.336,34.56 C99.8506667,34.56 101.498667,34.048 103.28,33.024 C105.061333,32 106.677333,30.752 108.128,29.28 C110.88,26.528 112.821333,24.2026667 113.952,22.304 C118.389333,16.0533333 122.378667,10.848 125.92,6.688 L125.92,6.688 L129.6,2.72 C129.728,2.592 129.792,2.43733333 129.792,2.256 C129.792,2.07466667 129.717333,1.92 129.568,1.792 L129.568,1.792 L128.832,1.28 C128.746667,1.216 128.608,1.184 128.416,1.184 C128.224,1.184 128.021333,1.30133333 127.808,1.536 L127.808,1.536 L125.92,3.392 L119.136,9.184 C118.517333,9.71733333 117.205333,10.784 115.2,12.384 C114.474667,12.96 113.584,13.664 112.528,14.496 C111.472,15.328 110.512,16.0586667 109.648,16.688 C108.784,17.3173333 107.914667,17.9306667 107.04,18.528 C106.165333,19.1253333 105.402667,19.584 104.752,19.904 C104.101333,20.224 103.674667,20.384 103.472,20.384 C103.269333,20.384 103.168,20.3626667 103.168,20.32 C103.168,19.4453333 104.821333,17.568 108.128,14.688 C109.514667,13.4933333 110.896,12.2666667 112.272,11.008 C113.648,9.74933333 114.816,8.50666667 115.776,7.28 C116.736,6.05333333 117.216,5.04533333 117.216,4.256 C117.216,3.12533333 116.842667,2.32 116.096,1.84 C115.349333,1.36 114.528,1.12 113.632,1.12 C111.52,1.12 109.141333,1.984 106.496,3.712 C103.850667,5.44 101.578667,7.66933333 99.68,10.4 C99.36,10.72 99.2,10.9866667 99.2,11.2 C99.2,11.2853333 99.2426667,11.3386667 99.328,11.36 L99.328,11.36 L99.424,11.36 C99.68,11.36 99.9146667,11.2106667 100.128,10.912 C101.472,9.67466667 102.885333,8.56533333 104.368,7.584 C105.850667,6.60266667 107.162667,5.856 108.304,5.344 C109.445333,4.832 110.533333,4.41066667 111.568,4.08 C112.602667,3.74933333 113.365333,3.54133333 113.856,3.456 C114.346667,3.37066667 114.656,3.328 114.784,3.328 C114.912,3.328 114.976,3.37066667 114.976,3.456 C114.976,3.75466667 114.464,4.384 113.44,5.344 L113.44,5.344 L104.896,12.96 C101.76,16.096 100.192,18.5173333 100.192,20.224 C100.192,21.12 100.474667,21.8133333 101.04,22.304 C101.605333,22.7946667 102.197333,23.04 102.816,23.04 C105.397333,23.04 109.504,20.2773333 115.136,14.752 L115.136,14.752 L119.776,10.208 C120.096,9.90933333 120.277333,9.76 120.32,9.76 C120.362667,9.76 120.298667,9.86666667 120.128,10.08 C120.042667,10.1866667 119.984,10.2613333 119.952,10.304 C119.92,10.3466667 119.893333,10.3786667 119.872,10.4 L119.872,10.4 L114.784,16 C113.845333,17.0453333 111.36,19.904 107.328,24.576 L107.328,24.576 L107.2,24.576 C106.026667,24.576 104.597333,25.0133333 102.912,25.888 C101.226667,26.7626667 99.76,27.824 98.512,29.072 C97.264,30.32 96.64,31.4133333 96.64,32.352 C96.64,33.056 96.8426667,33.6 97.248,33.984 C97.6533333,34.368 98.016,34.56 98.336,34.56 Z M98.08,33.44 C98.016,33.44 97.984,33.408 97.984,33.344 C97.984,32.7253333 98.8266667,31.4986667 100.512,29.664 C102.197333,27.8293333 104.074667,26.3573333 106.144,25.248 L106.144,25.248 L106.688,25.056 C106.730667,25.056 106.752,25.072 106.752,25.104 C106.752,25.136 106.666667,25.2373333 106.496,25.408 L106.496,25.408 L105.28,26.912 C104.448,27.936 103.344,29.1093333 101.968,30.432 C100.592,31.7546667 99.36,32.736 98.272,33.376 L98.272,33.376 L98.08,33.44 Z M122.976,22.752 C124.362667,22.752 126.154667,22.16 128.352,20.976 C130.549333,19.792 132.496,18.5386667 134.192,17.216 C135.888,15.8933333 137.269333,14.6986667 138.336,13.632 C138.528,13.4613333 138.624,13.2693333 138.624,13.056 C138.624,12.8426667 138.528,12.6613333 138.336,12.512 C138.250667,12.576 137.968,12.7786667 137.488,13.12 C137.008,13.4613333 136.650667,13.7173333 136.416,13.888 C133.066667,16.2773333 130.442667,17.9466667 128.544,18.896 C126.645333,19.8453333 124.885333,20.32 123.264,20.32 C123.008,20.2346667 122.88,20.016 122.88,19.664 C122.88,19.312 123.050667,18.8533333 123.392,18.288 C123.733333,17.7226667 123.978667,17.44 124.128,17.44 C124.277333,17.44 124.394667,17.472 124.48,17.536 C124.650667,17.856 124.912,18.016 125.264,18.016 C125.616,18.016 126.341333,17.744 127.44,17.2 C128.538667,16.656 129.589333,15.9413333 130.592,15.056 C131.594667,14.1706667 132.096,13.376 132.096,12.672 C132.096,12.288 131.877333,11.8933333 131.44,11.488 C131.002667,11.0826667 130.528,10.88 130.016,10.88 C128.864,10.88 127.541333,11.3333333 126.048,12.24 C124.554667,13.1466667 123.258667,14.3093333 122.16,15.728 C121.061333,17.1466667 120.512,18.4853333 120.512,19.744 C120.512,21.7493333 121.333333,22.752 122.976,22.752 Z M125.088,16.384 C125.024,16.384 124.992,16.3626667 124.992,16.32 C124.992,16.064 125.653333,15.3653333 126.976,14.224 C128.298667,13.0826667 129.237333,12.512 129.792,12.512 C129.92,12.512 129.984,12.5653333 129.984,12.672 C129.984,13.056 129.285333,13.7706667 127.888,14.816 C126.490667,15.8613333 125.557333,16.384 125.088,16.384 Z M140.16,23.2 C141.013333,23.2 142.512,22.368 144.656,20.704 C146.8,19.04 148.394667,17.712 149.44,16.72 C150.485333,15.728 151.349333,14.9013333 152.032,14.24 C152.224,14.0693333 152.32,13.8773333 152.32,13.664 C152.32,13.4506667 152.224,13.2693333 152.032,13.12 C150.901333,13.9093333 149.584,14.8746667 148.08,16.016 C146.576,17.1573333 145.370667,18.0373333 144.464,18.656 C143.557333,19.2746667 142.778667,19.7333333 142.128,20.032 C141.477333,20.3306667 141.029333,20.48 140.784,20.48 C140.538667,20.48 140.416,20.384 140.416,20.192 C140.416,19.8293333 140.48,19.4026667 140.608,18.912 C140.672,18.7413333 140.789333,18.5333333 140.96,18.288 C141.130667,18.0426667 141.285333,17.824 141.424,17.632 C141.562667,17.44 141.792,17.1626667 142.112,16.8 C142.432,16.4373333 142.72,16.112 142.976,15.824 C143.232,15.536 143.621333,15.1093333 144.144,14.544 C144.666667,13.9786667 145.130667,13.472 145.536,13.024 C145.621333,12.9173333 145.664,12.7786667 145.664,12.608 C145.664,12.4373333 145.557333,12.2986667 145.344,12.192 L145.344,12.192 L144.448,11.936 C144.384,11.8933333 144.250667,11.872 144.048,11.872 C143.845333,11.872 143.594667,11.9786667 143.296,12.192 C141.696,13.4933333 139.658667,15.008 137.184,16.736 L137.184,16.736 L137.024,16.832 C137.002667,16.832 136.992,16.8106667 136.992,16.768 C136.992,16.7253333 137.130667,16.5333333 137.408,16.192 L137.408,16.192 L139.808,12.864 C139.914667,12.7146667 139.968,12.5653333 139.968,12.416 C139.968,12.2026667 139.770667,12.0106667 139.376,11.84 C138.981333,11.6693333 138.698667,11.584 138.528,11.584 C138.293333,11.584 137.978667,11.8826667 137.584,12.48 C137.189333,13.0773333 136.709333,13.8346667 136.144,14.752 C135.578667,15.6693333 135.04,16.384 134.528,16.896 C133.888,17.8133333 132.778667,18.9973333 131.2,20.448 C131.093333,20.6186667 131.04,20.8106667 131.04,21.024 C131.04,21.664 131.392,21.984 132.096,21.984 C132.352,21.984 132.565333,21.9306667 132.736,21.824 C133.76,21.2906667 136.128,19.4773333 139.84,16.384 C139.968,16.2773333 140.032,16.24 140.032,16.272 C140.032,16.304 139.968,16.416 139.84,16.608 L139.84,16.608 L138.464,18.496 C137.952,19.2213333 137.696,19.9146667 137.696,20.576 C137.696,22.3253333 138.517333,23.2 140.16,23.2 Z" id="WarrenYen"></path>
            </g>
        </g>
    </g>
</svg>