<?xml version="1.0" encoding="UTF-8"?>
<svg width="30px" height="30px" viewBox="0 0 30 30" version="1.1" xmlns="http://www.w3.org/2000/svg" xmlns:xlink="http://www.w3.org/1999/xlink">
    <!-- Generator: Sketch 61.1 (89650) - https://sketch.com -->
    <title>Shape</title>
    <desc>Created with Sketch.</desc>
    <g id="Page-1" stroke="none" stroke-width="1" fill="none" fill-rule="evenodd">
        <g id="Jaxx-Liberty" transform="translate(-717.000000, -5218.000000)" fill="#666666" fill-rule="nonzero">
            <g id="footer" transform="translate(435.000000, 5218.000000)">
                <g id="linkedin" transform="translate(282.000000, 0.000000)">
                    <path d="M9.37545773,24.7851563 L5.27389523,24.7851563 L5.27389523,11.5429688 L9.37545773,11.5429688 L9.37545773,24.7851563 Z M9.78469852,7.32398988 C9.78469852,5.99807742 8.70895383,4.921875 7.38372803,4.921875 C6.0534668,4.921875 4.98046875,5.99807742 4.98046875,7.32398988 C4.98046875,8.65036008 6.0534668,9.7265625 7.38372803,9.7265625 C8.70895383,9.7265625 9.78469852,8.65036008 9.78469852,7.32398988 Z M24.7265625,17.4998474 C24.7265625,13.9450836 23.9756012,11.3085938 19.822998,11.3085938 C17.8276062,11.3085938 16.4881897,12.3065186 15.941391,13.3442688 L15.9375,13.3442688 L15.9375,11.5429688 L11.953125,11.5429688 L11.953125,24.7851563 L15.9375,24.7851563 L15.9375,18.2102966 C15.9375,16.4884186 16.3758087,14.8203278 18.5101318,14.8203278 C20.615387,14.8203278 20.6835938,16.7893982 20.6835938,18.3197021 L20.6835938,24.7851563 L24.7265625,24.7851563 L24.7265625,17.4998474 Z M30,26.484375 L30,3.515625 C30,1.57699582 28.4230042,3.33066907e-15 26.484375,3.33066907e-15 L3.515625,3.33066907e-15 C1.57699582,3.33066907e-15 0,1.57699582 0,3.515625 L0,26.484375 C0,28.4230042 1.57699582,30 3.515625,30 L26.484375,30 C28.4230042,30 30,28.4230042 30,26.484375 Z M26.484375,2.34375 C27.1305084,2.34375 27.65625,2.86949156 27.65625,3.515625 L27.65625,26.484375 C27.65625,27.1305084 27.1305084,27.65625 26.484375,27.65625 L3.515625,27.65625 C2.86949156,27.65625 2.34375,27.1305084 2.34375,26.484375 L2.34375,3.515625 C2.34375,2.86949156 2.86949156,2.34375 3.515625,2.34375 L26.484375,2.34375 Z" id="Shape"></path>
                </g>
            </g>
        </g>
    </g>
</svg>