<?xml version="1.0" encoding="UTF-8"?>
<svg width="30px" height="23px" viewBox="0 0 30 23" version="1.1" xmlns="http://www.w3.org/2000/svg" xmlns:xlink="http://www.w3.org/1999/xlink">
    <!-- Generator: Sketch 61.1 (89650) - https://sketch.com -->
    <title>mail</title>
    <desc>Created with Sketch.</desc>
    <g id="Page-1" stroke="none" stroke-width="1" fill="none" fill-rule="evenodd">
        <g id="Jaxx-Liberty" transform="translate(-435.000000, -5222.000000)" fill="#666666" fill-rule="nonzero">
            <g id="footer" transform="translate(435.000000, 5218.000000)">
                <g id="mail" transform="translate(0.000000, 4.000000)">
                    <path d="M27.3632812,0 L2.63671875,0 C1.18464844,0 0,1.16515385 0,2.59615385 L0,19.9038462 C0,21.33 1.179375,22.5 2.63671875,22.5 L27.3632812,22.5 C28.8117188,22.5 30,21.3387692 30,19.9038462 L30,2.59615385 C30,1.17 28.820625,0 27.3632812,0 Z M26.9991797,1.73076923 L15.0558984,13.4903654 L3.00931641,1.73076923 L26.9991797,1.73076923 Z M1.7578125,19.5454615 L1.7578125,2.94628846 L10.2233789,11.2101346 L1.7578125,19.5454615 Z M3.00076172,20.7692308 L11.4716602,12.4286538 L14.4398438,15.3260769 C14.7834375,15.6615 15.3379102,15.6604038 15.6800977,15.3234231 L18.5742188,12.4738269 L26.9992383,20.7692308 L3.00076172,20.7692308 Z M28.2421875,19.5454038 L19.817168,11.25 L28.2421875,2.95453846 L28.2421875,19.5454038 Z" id="Shape"></path>
                </g>
            </g>
        </g>
    </g>
</svg>